# Aspose.3D Wavefront OBJ Exporter
# Copyright 2004-2024 Aspose Pty Ltd.
# File created: 05/04/2024 14:51:45

g ball-2

#
# object ball-2
#

v -0.7333039 0.08054676 0.6826391
v -0.70805734 0.08817641 0.7080587
v -0.69673973 0.0713632 0.7182687
v -0.6826377 0.08054676 0.7333053
v -0.66426176 0.039483614 0.750269
v -0.66391635 0.062955506 0.75170076
v -0.6494421 0.030244995 0.76572967
v -0.7366163 0.060863405 0.6782421
v -0.75169927 0.062955506 0.6639176
v -0.7047884 0.05107085 0.72014856
v -0.7332725 0.04360589 0.69160825
v -0.7580175 0.012681816 0.6563572
v -0.76572865 0.030244986 0.6494433
v -0.7485977 0.009168597 0.67602915
v -0.71765214 -1.415195E-07 0.71765333
v -0.68164164 0.02838961 0.74305516
v -0.67602766 -0.009168861 0.74859905
v -0.7502676 -0.039483864 0.6642631
v -0.743054 -0.028389875 0.68164265
v -0.65635604 -0.012682071 0.75801873
v -0.67824066 -0.060863674 0.7366177
v -0.66391635 -0.06295578 0.75170076
v -0.6826377 -0.08054702 0.7333053
v -0.72014743 -0.05107112 0.7047895
v -0.69160694 -0.043606162 0.73327386
v -0.71826714 -0.07136344 0.6967409
v -0.70805734 -0.08817666 0.7080587
v -0.7333039 -0.080547005 0.6826391
v -0.75169927 -0.06295577 0.6639176
v -0.76572865 -0.03024525 0.6494433
v -0.7697167 -1.415195E-07 0.6453476
v -0.6494421 -0.03024525 0.76572967
v -0.64534616 -1.3156922E-07 0.7697182
# 33 vertices

vn 0.7521174 -0.27138332 -0.6005585
vn 0.68136287 -0.26983657 -0.6803917
vn 0.66837233 -0.10705102 -0.7360832
vn 0.6010645 -0.27249122 -0.7513122
vn 0.63304174 -0.039968774 -0.7730852
vn 0.4314992 -0.27464834 -0.8592885
vn 0.4670411 -0.106130935 -0.87784326
vn 0.76645833 -0.13706286 -0.62749934
vn 0.84546167 -0.23261115 -0.48071474
vn 0.6653948 -0.24890205 -0.70377374
vn 0.780857 -0.18947528 -0.5952827
vn 0.76843965 -0.011357699 -0.63982147
vn 0.8779024 -0.10798915 -0.46650377
vn 0.86732036 -0.045860138 -0.49563313
vn 0.707107 3.7693685E-08 -0.70710653
vn 0.54222256 -0.15938339 -0.8249798
vn 0.49563268 0.045860562 -0.8673206
vn 0.773084 0.039968774 -0.63304317
vn 0.82498056 0.15938692 -0.5422203
vn 0.6398203 0.0113585945 -0.76844066
vn 0.6275018 0.13706376 -0.7664562
vn 0.48071426 0.23261017 -0.8454622
vn 0.6005614 0.2713816 -0.7521157
vn 0.7037754 0.24890713 -0.6653912
vn 0.595282 0.1894758 -0.7808574
vn 0.7360833 0.107048444 -0.66837263
vn 0.6803922 0.26982856 -0.68136555
vn 0.75131303 0.27248693 -0.6010654
vn 0.859288 0.27465072 -0.43149877
vn 0.8778429 0.10613005 -0.46704203
vn 0.9143414 -0.00071978767 -0.4049436
vn 0.46650094 0.10799181 -0.8779035
vn 0.40494254 0.0007195172 -0.91434187
# 33 vertex normals

vt 0.12585449 0.8886719 0
vt 0.13464355 0.890625 0
vt 0.13842773 0.88671875 0
vt 0.14343262 0.8886719 0
vt 0.14953613 0.87890625 0
vt 0.14953613 0.88427734 0
vt 0.1541748 0.87646484 0
vt 0.12445068 0.88427734 0
vt 0.11975098 0.8847656 0
vt 0.13720703 0.88134766 0
vt 0.12756348 0.8798828 0
vt 0.11706543 0.8725586 0
vt 0.115112305 0.87646484 0
vt 0.12243652 0.87158203 0
vt 0.13464355 0.8691406 0
vt 0.14501953 0.87597656 0
vt 0.14685059 0.8666992 0
vt 0.11975098 0.859375 0
vt 0.12426758 0.8623047 0
vt 0.15222168 0.86572266 0
vt 0.14477539 0.8535156 0
vt 0.14953613 0.8535156 0
vt 0.14331055 0.8491211 0
vt 0.13208008 0.8564453 0
vt 0.14172363 0.85839844 0
vt 0.1307373 0.8510742 0
vt 0.13452148 0.84765625 0
vt 0.12573242 0.8496094 0
vt 0.11968994 0.8540039 0
vt 0.11505127 0.8618164 0
vt 0.11383057 0.8691406 0
vt 0.1541748 0.8618164 0
vt 0.15539551 0.8691406 0
# 33 texture coords

s 1
f 1/1/1 2/2/2 3/3/3
f 2/2/2 4/4/4 3/3/3
f 5/5/5 3/3/3 4/4/4
f 4/4/4 6/6/6 5/5/5
f 6/6/6 7/7/7 5/5/5
f 1/1/1 8/8/8 9/9/9
f 3/3/3 8/8/8 1/1/1
f 8/8/8 3/3/3 10/10/10
f 10/10/10 11/11/11 8/8/8
f 12/12/12 13/13/13 9/9/9
f 9/9/9 8/8/8 12/12/12
f 14/14/14 12/12/12 8/8/8
f 8/8/8 11/11/11 14/14/14
f 11/11/11 15/15/15 14/14/14
f 10/10/10 15/15/15 11/11/11
f 10/10/10 16/16/16 15/15/15
f 16/16/16 17/17/17 15/15/15
f 18/18/18 12/12/12 14/14/14
f 14/14/14 19/19/19 18/18/18
f 19/19/19 14/14/14 15/15/15
f 16/16/16 10/10/10 3/3/3
f 3/3/3 5/5/5 16/16/16
f 17/17/17 16/16/16 5/5/5
f 5/5/5 20/20/20 17/17/17
f 17/17/17 20/20/20 21/21/21
f 22/22/22 21/21/21 20/20/20
f 23/23/23 21/21/21 22/22/22
f 24/24/24 19/19/19 15/15/15
f 24/24/24 15/15/15 25/25/25
f 25/25/25 15/15/15 17/17/17
f 21/21/21 25/25/25 17/17/17
f 24/24/24 25/25/25 21/21/21
f 21/21/21 26/26/26 24/24/24
f 26/26/26 21/21/21 23/23/23
f 23/23/23 27/27/27 26/26/26
f 27/27/27 28/28/28 26/26/26
f 28/28/28 29/29/29 18/18/18
f 18/18/18 26/26/26 28/28/28
f 26/26/26 18/18/18 19/19/19
f 19/19/19 24/24/24 26/26/26
f 29/29/29 30/30/30 18/18/18
f 18/18/18 30/30/30 31/31/31
f 31/31/31 12/12/12 18/18/18
f 13/13/13 12/12/12 31/31/31
f 20/20/20 32/32/32 22/22/22
f 32/32/32 20/20/20 33/33/33
f 33/33/33 20/20/20 5/5/5
f 5/5/5 7/7/7 33/33/33
#48 polygons

