# Aspose.3D Wavefront OBJ Exporter
# Copyright 2004-2024 Aspose Pty Ltd.
# File created: 05/04/2024 14:52:17

g Cube_Cube.002

#
# object Cube_Cube.002
#

v -1 -1 1
v -1 1 1
v -1 -1 -1
v -1 1 -1
v 1 -1 1
v 1 1 1
v 1 -1 -1
v 1 1 -1
# 8 vertices

vn -1 0 0
vn 0 0 -1
vn 1 0 0
vn 0 0 1
vn 0 -1 0
vn 0 1 0
# 6 vertex normals

vt 0.375 0 0
vt 0.625 0 0
vt 0.625 0.25 0
vt 0.375 0.25 0
vt 0.625 0.5 0
vt 0.375 0.5 0
vt 0.625 0.75 0
vt 0.375 0.75 0
vt 0.625 1 0
vt 0.375 1 0
vt 0.125 0.5 0
vt 0.125 0.75 0
vt 0.875 0.5 0
vt 0.875 0.75 0
# 14 texture coords

s 1
f 1/1/1 2/2/1 4/3/1 3/4/1
f 3/4/2 4/3/2 8/5/2 7/6/2
f 7/6/3 8/5/3 6/7/3 5/8/3
f 5/8/4 6/7/4 2/9/4 1/10/4
f 3/11/5 7/6/5 5/8/5 1/12/5
f 8/5/6 4/13/6 2/14/6 6/7/6
#6 polygons

